<?xml version="1.0" encoding="UTF-8"?>
<svg width="752pt" height="752pt" version="1.1" viewBox="0 0 752 752" xmlns="http://www.w3.org/2000/svg">
 <defs>
  <clipPath id="b">
   <path d="m148 375h362v237.79h-362z"/>
  </clipPath>
  <clipPath id="a">
   <path d="m146 139.21h460v224.79h-460z"/>
  </clipPath>
 </defs>
 <g clip-path="url(#b)">
  <path d="m328.79 425.25c-90.43 0-165.45-20.891-179.82-48.324 14.398 107.15 89.508 235.86 180.06 235.86 90.926 0 166.3-129.79 180.25-237.18-12.605 28.066-88.594 49.645-180.48 49.645z"/>
 </g>
 <g clip-path="url(#a)">
  <path d="m580.45 230.31c-21.613 11.754-67.695-22.258-93.703-27.363 2.5156-0.94531 4.9102-1.8008 7.0391-2.4336 21.98-6.543 84.246 21.828 105 27.645 20.766 5.8164-10.992-88.75-31.129-67.66-20.145 21.098-84.242-2.9102-105 8.7305-5.8711 3.2852-11.324 9.8203-16.164 17.438-31.75-29.598-72.719-47.457-117.47-47.457-100.84 0-182.59 90.547-182.59 202.24 0 6.6016 0.30469 13.395 0.86328 20.289 8.8828-29.348 86.738-38.477 181.48-38.477 96.344 0 175.19 9.9023 181.86 39.965 0.62891-7.418 0.96484-14.695 0.96484-21.773 0-35.652-8.3633-69.137-22.984-98.227 4.2148-0.17578 8.1211-0.21875 11.41-0.027343 22.621 1.293 75.375 49.883 93.824 62.594 18.469 12.719 10.992-88.738-13.406-75.48z"/>
 </g>
 <path d="m316.76 386.67-106.61-39.086-8.0078 21.859 42.688 6.418c-2.9453 2.6719-4.832 6.5117-4.832 10.809 0 8.0977 6.5703 14.668 14.668 14.668 8.1016 0 14.672-6.5703 14.672-14.668 0-2.7266-0.79688-5.2539-2.0898-7.4453z"/>
 <path d="m413.23 375.86 42.688-6.418-8.0078-21.863-106.61 39.09 49.52-7.4336c-1.3008 2.1914-2.0898 4.7109-2.0898 7.4336 0 8.0977 6.5703 14.672 14.668 14.672s14.68-6.5742 14.68-14.672c-0.023437-4.2969-1.8945-8.1367-4.8438-10.809z"/>
</svg>

<svg width="752pt" height="752pt" version="1.1" viewBox="0 0 752 752" xmlns="http://www.w3.org/2000/svg">
 <defs>
  <clipPath id="b">
   <path d="m148 375h362v237.79h-362z"/>
  </clipPath>
  <clipPath id="a">
   <path d="m146 139.21h460v224.79h-460z"/>
  </clipPath>
 </defs>
 <g clip-path="url(#b)">
  <path d="m328.79 425.25c-90.43 0-165.45-20.891-179.82-48.324 14.398 107.15 89.508 235.86 180.06 235.86 90.926 0 166.3-129.79 180.25-237.18-12.605 28.066-88.594 49.645-180.48 49.645z"/>
 </g>
 <g clip-path="url(#a)">
  <path d="m580.45 230.31c-21.613 11.754-67.695-22.258-93.703-27.363 2.5156-0.94531 4.9102-1.8008 7.0391-2.4336 21.98-6.543 84.246 21.828 105 27.645 20.766 5.8164-10.992-88.75-31.129-67.66-20.145 21.098-84.242-2.9102-105 8.7305-5.8711 3.2852-11.324 9.8203-16.164 17.438-31.75-29.598-72.719-47.457-117.47-47.457-100.84 0-182.59 90.547-182.59 202.24 0 6.6016 0.30469 13.395 0.86328 20.289 8.8828-29.348 86.738-38.477 181.48-38.477 96.344 0 175.19 9.9023 181.86 39.965 0.62891-7.418 0.96484-14.695 0.96484-21.773 0-35.652-8.3633-69.137-22.984-98.227 4.2148-0.17578 8.1211-0.21875 11.41-0.027343 22.621 1.293 75.375 49.883 93.824 62.594 18.469 12.719 10.992-88.738-13.406-75.48z"/>
 </g>
 <path d="m316.76 386.67-106.61-39.086-8.0078 21.859 42.688 6.418c-2.9453 2.6719-4.832 6.5117-4.832 10.809 0 8.0977 6.5703 14.668 14.668 14.668 8.1016 0 14.672-6.5703 14.672-14.668 0-2.7266-0.79688-5.2539-2.0898-7.4453z"/>
 <path d="m413.23 375.86 42.688-6.418-8.0078-21.863-106.61 39.09 49.52-7.4336c-1.3008 2.1914-2.0898 4.7109-2.0898 7.4336 0 8.0977 6.5703 14.672 14.668 14.672s14.68-6.5742 14.68-14.672c-0.023437-4.2969-1.8945-8.1367-4.8438-10.809z"/>
</svg>
